<mxfile host="app.diagrams.net" modified="2023-04-28T11:40:41.666Z" agent="Mozilla/5.0 (Windows NT 10.0; Win64; x64) AppleWebKit/537.36 (KHTML, like Gecko) Chrome/112.0.0.0 Safari/537.36" etag="rExjvV6cOan79cKKbSjj" version="21.2.3" type="device">
  <diagram id="_z_kxemTw84_M1QY5IJ6" name="Page-1">
    <mxGraphModel dx="2901" dy="2268" grid="1" gridSize="10" guides="1" tooltips="1" connect="1" arrows="1" fold="1" page="1" pageScale="1" pageWidth="827" pageHeight="1169" math="0" shadow="0">
      <root>
        <mxCell id="0" />
        <mxCell id="1" parent="0" />
        <mxCell id="KQuNPY4IeF9uxoqhli7A-9" value="Alertness level &amp;gt; 0 and below max" style="edgeStyle=orthogonalEdgeStyle;curved=1;rounded=0;orthogonalLoop=1;jettySize=auto;html=1;exitX=1;exitY=1;exitDx=0;exitDy=0;entryX=0;entryY=0.5;entryDx=0;entryDy=0;" parent="1" source="KQuNPY4IeF9uxoqhli7A-1" target="KQuNPY4IeF9uxoqhli7A-4" edge="1">
          <mxGeometry relative="1" as="geometry">
            <Array as="points">
              <mxPoint x="288" y="545" />
            </Array>
          </mxGeometry>
        </mxCell>
        <mxCell id="KQuNPY4IeF9uxoqhli7A-13" value="Sound heard" style="edgeStyle=orthogonalEdgeStyle;curved=1;rounded=0;orthogonalLoop=1;jettySize=auto;html=1;exitX=0.5;exitY=0;exitDx=0;exitDy=0;entryX=0;entryY=0.5;entryDx=0;entryDy=0;" parent="1" source="KQuNPY4IeF9uxoqhli7A-1" target="KQuNPY4IeF9uxoqhli7A-2" edge="1">
          <mxGeometry relative="1" as="geometry">
            <Array as="points">
              <mxPoint x="230" y="280" />
              <mxPoint x="230" y="90" />
            </Array>
          </mxGeometry>
        </mxCell>
        <mxCell id="04_gx8tl3a63GkmhyHUs-2" value="Num objs seen out &lt;br&gt;of default state &amp;gt; 1" style="edgeStyle=orthogonalEdgeStyle;rounded=0;orthogonalLoop=1;jettySize=auto;html=1;exitX=0.5;exitY=0;exitDx=0;exitDy=0;entryX=1;entryY=0.5;entryDx=0;entryDy=0;curved=1;" parent="1" source="KQuNPY4IeF9uxoqhli7A-1" target="04_gx8tl3a63GkmhyHUs-1" edge="1">
          <mxGeometry relative="1" as="geometry">
            <Array as="points">
              <mxPoint x="170" y="280" />
              <mxPoint x="170" y="220" />
            </Array>
          </mxGeometry>
        </mxCell>
        <mxCell id="KQuNPY4IeF9uxoqhli7A-1" value="Default / go to next waypoint" style="ellipse;whiteSpace=wrap;html=1;aspect=fixed;" parent="1" vertex="1">
          <mxGeometry x="220" y="280" width="80" height="80" as="geometry" />
        </mxCell>
        <mxCell id="KQuNPY4IeF9uxoqhli7A-14" value="Reached location of sound, alertness = 0" style="edgeStyle=orthogonalEdgeStyle;curved=1;rounded=0;orthogonalLoop=1;jettySize=auto;html=1;exitX=0;exitY=1;exitDx=0;exitDy=0;entryX=1;entryY=0;entryDx=0;entryDy=0;" parent="1" source="KQuNPY4IeF9uxoqhli7A-2" target="KQuNPY4IeF9uxoqhli7A-1" edge="1">
          <mxGeometry x="0.5965" y="62" relative="1" as="geometry">
            <mxPoint as="offset" />
          </mxGeometry>
        </mxCell>
        <mxCell id="KQuNPY4IeF9uxoqhli7A-16" style="edgeStyle=orthogonalEdgeStyle;curved=1;rounded=0;orthogonalLoop=1;jettySize=auto;html=1;entryX=0.5;entryY=0;entryDx=0;entryDy=0;exitX=1;exitY=1;exitDx=0;exitDy=0;" parent="1" source="KQuNPY4IeF9uxoqhli7A-2" target="KQuNPY4IeF9uxoqhli7A-4" edge="1">
          <mxGeometry relative="1" as="geometry" />
        </mxCell>
        <mxCell id="KQuNPY4IeF9uxoqhli7A-17" value="Alertness level &amp;gt; 0 and below max" style="edgeLabel;html=1;align=center;verticalAlign=middle;resizable=0;points=[];" parent="KQuNPY4IeF9uxoqhli7A-16" vertex="1" connectable="0">
          <mxGeometry x="-0.125" relative="1" as="geometry">
            <mxPoint y="38.42" as="offset" />
          </mxGeometry>
        </mxCell>
        <mxCell id="04_gx8tl3a63GkmhyHUs-12" value="Num objs seen out&amp;nbsp;&lt;br&gt;of default state &amp;gt; 1" style="edgeStyle=orthogonalEdgeStyle;curved=1;rounded=0;orthogonalLoop=1;jettySize=auto;html=1;exitX=0.5;exitY=0;exitDx=0;exitDy=0;entryX=0.5;entryY=0;entryDx=0;entryDy=0;" parent="1" source="KQuNPY4IeF9uxoqhli7A-2" target="04_gx8tl3a63GkmhyHUs-1" edge="1">
          <mxGeometry relative="1" as="geometry" />
        </mxCell>
        <mxCell id="KQuNPY4IeF9uxoqhli7A-2" value="Investigating Noise" style="ellipse;whiteSpace=wrap;html=1;aspect=fixed;" parent="1" vertex="1">
          <mxGeometry x="380" y="50" width="80" height="80" as="geometry" />
        </mxCell>
        <mxCell id="KQuNPY4IeF9uxoqhli7A-10" value="Alertness level at maximum" style="edgeStyle=orthogonalEdgeStyle;curved=1;rounded=0;orthogonalLoop=1;jettySize=auto;html=1;exitX=1;exitY=0.5;exitDx=0;exitDy=0;entryX=0.5;entryY=1;entryDx=0;entryDy=0;" parent="1" source="KQuNPY4IeF9uxoqhli7A-4" target="KQuNPY4IeF9uxoqhli7A-5" edge="1">
          <mxGeometry relative="1" as="geometry" />
        </mxCell>
        <mxCell id="KQuNPY4IeF9uxoqhli7A-25" value="Alertness = 0" style="edgeStyle=orthogonalEdgeStyle;curved=1;rounded=0;orthogonalLoop=1;jettySize=auto;html=1;exitX=0;exitY=0;exitDx=0;exitDy=0;entryX=1;entryY=0.5;entryDx=0;entryDy=0;" parent="1" source="KQuNPY4IeF9uxoqhli7A-4" target="KQuNPY4IeF9uxoqhli7A-1" edge="1">
          <mxGeometry relative="1" as="geometry" />
        </mxCell>
        <mxCell id="KQuNPY4IeF9uxoqhli7A-4" value="Investigating sighting of player" style="ellipse;whiteSpace=wrap;html=1;aspect=fixed;" parent="1" vertex="1">
          <mxGeometry x="490" y="505" width="80" height="80" as="geometry" />
        </mxCell>
        <mxCell id="KQuNPY4IeF9uxoqhli7A-11" style="edgeStyle=orthogonalEdgeStyle;curved=1;rounded=0;orthogonalLoop=1;jettySize=auto;html=1;exitX=0.5;exitY=0;exitDx=0;exitDy=0;entryX=0.988;entryY=0.225;entryDx=0;entryDy=0;entryPerimeter=0;" parent="1" source="KQuNPY4IeF9uxoqhli7A-5" target="KQuNPY4IeF9uxoqhli7A-1" edge="1">
          <mxGeometry relative="1" as="geometry" />
        </mxCell>
        <mxCell id="KQuNPY4IeF9uxoqhli7A-12" value="Alertness level = 0" style="edgeLabel;html=1;align=center;verticalAlign=middle;resizable=0;points=[];" parent="KQuNPY4IeF9uxoqhli7A-11" vertex="1" connectable="0">
          <mxGeometry x="0.3569" y="21" relative="1" as="geometry">
            <mxPoint x="206" y="21" as="offset" />
          </mxGeometry>
        </mxCell>
        <mxCell id="KQuNPY4IeF9uxoqhli7A-5" value="Chasing player" style="ellipse;whiteSpace=wrap;html=1;aspect=fixed;" parent="1" vertex="1">
          <mxGeometry x="710" y="390" width="80" height="80" as="geometry" />
        </mxCell>
        <mxCell id="KQuNPY4IeF9uxoqhli7A-8" value="Nothing seen (alertness = 0) &lt;br&gt;&amp;amp; nothing heard" style="edgeStyle=orthogonalEdgeStyle;rounded=0;orthogonalLoop=1;jettySize=auto;html=1;exitX=0;exitY=0.5;exitDx=0;exitDy=0;entryX=0;entryY=1;entryDx=0;entryDy=0;curved=1;" parent="1" source="KQuNPY4IeF9uxoqhli7A-1" target="KQuNPY4IeF9uxoqhli7A-1" edge="1">
          <mxGeometry y="-30" relative="1" as="geometry">
            <Array as="points">
              <mxPoint x="150" y="320" />
              <mxPoint x="150" y="380" />
              <mxPoint x="232" y="380" />
            </Array>
            <mxPoint as="offset" />
          </mxGeometry>
        </mxCell>
        <mxCell id="KQuNPY4IeF9uxoqhli7A-19" value="Alertness = max" style="edgeStyle=orthogonalEdgeStyle;curved=1;rounded=0;orthogonalLoop=1;jettySize=auto;html=1;exitX=1;exitY=0;exitDx=0;exitDy=0;entryX=1;entryY=1;entryDx=0;entryDy=0;" parent="1" source="KQuNPY4IeF9uxoqhli7A-5" target="KQuNPY4IeF9uxoqhli7A-5" edge="1">
          <mxGeometry x="-0.1817" relative="1" as="geometry">
            <Array as="points">
              <mxPoint x="810" y="402" />
              <mxPoint x="810" y="400" />
              <mxPoint x="870" y="400" />
              <mxPoint x="870" y="458" />
            </Array>
            <mxPoint as="offset" />
          </mxGeometry>
        </mxCell>
        <mxCell id="KQuNPY4IeF9uxoqhli7A-21" style="edgeStyle=orthogonalEdgeStyle;curved=1;rounded=0;orthogonalLoop=1;jettySize=auto;html=1;exitX=1;exitY=0;exitDx=0;exitDy=0;entryX=1;entryY=0.5;entryDx=0;entryDy=0;" parent="1" source="KQuNPY4IeF9uxoqhli7A-2" target="KQuNPY4IeF9uxoqhli7A-2" edge="1">
          <mxGeometry relative="1" as="geometry">
            <Array as="points">
              <mxPoint x="448" y="40" />
              <mxPoint x="520" y="40" />
              <mxPoint x="520" y="90" />
            </Array>
          </mxGeometry>
        </mxCell>
        <mxCell id="KQuNPY4IeF9uxoqhli7A-22" value="Remainingdistance &amp;gt; 0.5" style="edgeLabel;html=1;align=center;verticalAlign=middle;resizable=0;points=[];" parent="KQuNPY4IeF9uxoqhli7A-21" vertex="1" connectable="0">
          <mxGeometry x="-0.0899" y="-3" relative="1" as="geometry">
            <mxPoint y="-13" as="offset" />
          </mxGeometry>
        </mxCell>
        <mxCell id="KQuNPY4IeF9uxoqhli7A-23" value="Alertness level &amp;gt; 0 and below max" style="edgeStyle=orthogonalEdgeStyle;curved=1;rounded=0;orthogonalLoop=1;jettySize=auto;html=1;exitX=1;exitY=1;exitDx=0;exitDy=0;entryX=0.5;entryY=1;entryDx=0;entryDy=0;" parent="1" source="KQuNPY4IeF9uxoqhli7A-4" target="KQuNPY4IeF9uxoqhli7A-4" edge="1">
          <mxGeometry x="0.1097" relative="1" as="geometry">
            <Array as="points">
              <mxPoint x="600" y="573" />
              <mxPoint x="600" y="630" />
              <mxPoint x="530" y="630" />
            </Array>
            <mxPoint as="offset" />
          </mxGeometry>
        </mxCell>
        <mxCell id="KQuNPY4IeF9uxoqhli7A-26" value="&lt;font style=&quot;font-size: 21px&quot;&gt;Guard States&lt;/font&gt;" style="text;html=1;strokeColor=none;fillColor=none;align=center;verticalAlign=middle;whiteSpace=wrap;rounded=0;" parent="1" vertex="1">
          <mxGeometry x="400" y="-40" width="40" height="20" as="geometry" />
        </mxCell>
        <mxCell id="KQuNPY4IeF9uxoqhli7A-27" value="" style="endArrow=classic;html=1;entryX=0.5;entryY=1;entryDx=0;entryDy=0;startArrow=oval;startFill=1;" parent="1" target="KQuNPY4IeF9uxoqhli7A-1" edge="1">
          <mxGeometry width="50" height="50" relative="1" as="geometry">
            <mxPoint x="260" y="410" as="sourcePoint" />
            <mxPoint x="440" y="320" as="targetPoint" />
          </mxGeometry>
        </mxCell>
        <mxCell id="04_gx8tl3a63GkmhyHUs-4" value="Sound heard" style="edgeStyle=orthogonalEdgeStyle;curved=1;rounded=0;orthogonalLoop=1;jettySize=auto;html=1;exitX=1;exitY=0;exitDx=0;exitDy=0;entryX=0;entryY=0;entryDx=0;entryDy=0;" parent="1" source="04_gx8tl3a63GkmhyHUs-1" target="KQuNPY4IeF9uxoqhli7A-2" edge="1">
          <mxGeometry relative="1" as="geometry">
            <Array as="points">
              <mxPoint x="160" y="192" />
              <mxPoint x="160" y="62" />
            </Array>
          </mxGeometry>
        </mxCell>
        <mxCell id="04_gx8tl3a63GkmhyHUs-6" value="Alertness level &amp;gt; 0 and below max" style="edgeStyle=orthogonalEdgeStyle;curved=1;rounded=0;orthogonalLoop=1;jettySize=auto;html=1;exitX=0.5;exitY=1;exitDx=0;exitDy=0;" parent="1" source="04_gx8tl3a63GkmhyHUs-1" edge="1">
          <mxGeometry relative="1" as="geometry">
            <mxPoint x="500" y="580" as="targetPoint" />
            <Array as="points">
              <mxPoint x="-70" y="260" />
              <mxPoint x="-70" y="660" />
              <mxPoint x="500" y="660" />
            </Array>
          </mxGeometry>
        </mxCell>
        <mxCell id="04_gx8tl3a63GkmhyHUs-7" value="Text" style="edgeLabel;html=1;align=center;verticalAlign=middle;resizable=0;points=[];" parent="04_gx8tl3a63GkmhyHUs-6" vertex="1" connectable="0">
          <mxGeometry x="0.7506" y="-37" relative="1" as="geometry">
            <mxPoint as="offset" />
          </mxGeometry>
        </mxCell>
        <mxCell id="04_gx8tl3a63GkmhyHUs-11" value="Num objs seen out&amp;nbsp;&lt;br&gt;of default state = 0" style="edgeStyle=orthogonalEdgeStyle;curved=1;rounded=0;orthogonalLoop=1;jettySize=auto;html=1;exitX=1;exitY=1;exitDx=0;exitDy=0;entryX=0;entryY=0;entryDx=0;entryDy=0;" parent="1" source="04_gx8tl3a63GkmhyHUs-1" target="KQuNPY4IeF9uxoqhli7A-1" edge="1">
          <mxGeometry relative="1" as="geometry">
            <Array as="points">
              <mxPoint x="-2" y="292" />
            </Array>
          </mxGeometry>
        </mxCell>
        <mxCell id="04_gx8tl3a63GkmhyHUs-1" value="return objs to default state" style="ellipse;whiteSpace=wrap;html=1;aspect=fixed;" parent="1" vertex="1">
          <mxGeometry x="-70" y="180" width="80" height="80" as="geometry" />
        </mxCell>
        <mxCell id="04_gx8tl3a63GkmhyHUs-13" value="Num objs seen out&amp;nbsp;&lt;br&gt;of default state &amp;gt; 1" style="edgeStyle=orthogonalEdgeStyle;curved=1;rounded=0;orthogonalLoop=1;jettySize=auto;html=1;exitX=0;exitY=0;exitDx=0;exitDy=0;entryX=0;entryY=0.5;entryDx=0;entryDy=0;" parent="1" source="04_gx8tl3a63GkmhyHUs-1" target="04_gx8tl3a63GkmhyHUs-1" edge="1">
          <mxGeometry relative="1" as="geometry">
            <Array as="points">
              <mxPoint x="-58" y="150" />
              <mxPoint x="-140" y="150" />
              <mxPoint x="-140" y="220" />
            </Array>
          </mxGeometry>
        </mxCell>
      </root>
    </mxGraphModel>
  </diagram>
</mxfile>
